<?xml version="1.0" encoding="utf-8"?>
<!-- Generator: Adobe Illustrator 16.0.0, SVG Export Plug-In . SVG Version: 6.00 Build 0)  -->
<!DOCTYPE svg PUBLIC "-//W3C//DTD SVG 1.1//EN" "http://www.w3.org/Graphics/SVG/1.1/DTD/svg11.dtd">
<svg version="1.1" id="Calque_1" xmlns="http://www.w3.org/2000/svg" xmlns:xlink="http://www.w3.org/1999/xlink" x="0px" y="0px"
	 width="340.16px" height="216.334px" viewBox="0 0 340.16 216.334" enable-background="new 0 0 340.16 216.334"
	 xml:space="preserve">
<g>
	<linearGradient id="SVGID_1_" gradientUnits="userSpaceOnUse" x1="257.4443" y1="178.5225" x2="304.4619" y2="178.5225">
		<stop  offset="0.5659" style="stop-color:#61BEE5"/>
		<stop  offset="1" style="stop-color:#61BEE5"/>
	</linearGradient>
	<path fill="url(#SVGID_1_)" d="M280.058,162.041c2.386,0,5.042,0,8.224-1.064c3.188-1.061,0.522,3.42,2.918,3.42
		c2.388,0,8.137,4.575,8.137,4.575l5.126,0.511l0,0c-8.714,18.201-16.626,23.636-33.137,26.158l-9.904,0.59
		c-0.038-1.988-1.161-2.747-1.376-4.498c-1.102-8.805-2.601-7.121-2.601-7.121l2.756-5.777l0.737-13.606l1.859-0.8
		c1.859-0.796,5.31,0,6.638,0.268c0.06,0.011,0.129,0.016,0.206,0.016C271.354,164.711,277.767,162.041,280.058,162.041"/>
	<g>
		
			<linearGradient id="SVGID_2_" gradientUnits="userSpaceOnUse" x1="-121.5586" y1="566.3496" x2="-123.3448" y2="562.519" gradientTransform="matrix(107.6755 -75.3952 -75.3952 -107.6755 56003.6719 51606.875)">
			<stop  offset="0" style="stop-color:#00487F"/>
			<stop  offset="0.5818" style="stop-color:#00487F"/>
			<stop  offset="0.6788" style="stop-color:#61BEE5"/>
			<stop  offset="1" style="stop-color:#61BEE5"/>
		</linearGradient>
		<path fill="url(#SVGID_2_)" d="M249.752,131.138c1.225,1.366,2.046,2.35,1.844,4.301c-0.202,1.964-1.026,2.552,0.408,2.552
			c1.432,0,3.484,0.979,4.3,2.55c0.813,1.558,4.507,7.435,5.734,8.809c1.231,1.372,2.659,3.719,2.456,5.09
			c-0.204,1.367-1.025,3.135-1.025,3.135s4.509,2.158,7.379,0.39c2.867-1.762,10.087-19.441,14.63-22.471
			c5.75-3.834,14.176-3.587,14.448-4.424H249.7C249.721,131.092,249.731,131.114,249.752,131.138z"/>
		
			<linearGradient id="SVGID_3_" gradientUnits="userSpaceOnUse" x1="-122.501" y1="566.8594" x2="-124.3248" y2="562.9482" gradientTransform="matrix(107.6755 -75.3952 -75.3952 -107.6755 56003.6719 51606.875)">
			<stop  offset="0" style="stop-color:#00487F"/>
			<stop  offset="0.5818" style="stop-color:#00487F"/>
			<stop  offset="0.6788" style="stop-color:#61BEE5"/>
			<stop  offset="1" style="stop-color:#61BEE5"/>
		</linearGradient>
		<path fill="url(#SVGID_3_)" d="M31.437,130.872c0,1.572,2.538,2.557,14.115,3.714c2.745,0.274,4.828,0.332,6.549,0.332h5.862
			c0,0-1.546,1.813-3.448,3.62c-1.901,1.817-7.071,3.137-5.517,4.618c1.55,1.482,10.693,4.613,11.725,5.605
			c1.035,0.995-6.208,1.655-6.208,3.298c0,1.651,4.311,3.798,2.415,5.615c-1.896,1.813-3.788,3.954-6.212,1.642
			c-2.407-2.312-15.863-10.227-15.863-11.547c0-1.312-0.345-0.655-2.068-0.655c-1.721,0-4.483-6.929-6.728-4.773
			c-2.233,2.132-10.861,7.079-12.239,7.079c-1.381,0-2.76,2.979-2.76,2.979s6.896,2.3,9.656,4.939
			c2.76,2.644,3.109,2.644,5.868,2.644c2.756,0,12.417,2.963,12.417,4.609c0,1.654,5.167,2.312,5.167,2.312s4.829,3.958,6.898,3.958
			c2.075,0,13.108,3.624,14.487,4.944c1.375,1.325,7.588,3.297,11.38,6.931c3.795,3.628,14.829,4.95,23.106,2.639
			c0,0-14.483-19.457,11.383-19.457c25.867,0,29.666,9.229,32.763,12.197c3.104,2.971,7.591,11.868,9.657,13.847
			c2.071,1.984,16.555,18.801,23.106,18.801c6.556,0,23.108-1.32,24.833-2.967c1.723-1.649,6.213-5.276,6.213-7.914
			c0-2.639,7.929-7.92,10.688-7.92s11.72,0.994,11.72-3.622c0-4.614,4.488-9.893,6.213-9.893s5.175-2.312,5.175-2.312l2.419,0.995
			c0,0,1.374,2.309,2.41,1.316c1.031-0.99,2.073-1.655,2.073-4.951c0,0-6.902-0.979-3.448-4.282
			c3.448-3.296,4.137-9.896,4.137-9.896l1.377-2.312c0,0,1.728,6.601-0.348,8.575c-2.064,1.983-3.103,3.962-2.064,4.946
			c1.035,0.993,3.792-1.648,3.792-1.648l2.762-1.976c0,0-1.904-1.81-0.69-2.97c1.206-1.146,2.759,1.32,2.759,1.32
			s0.688-2.309,0.688-4.941c0-2.637,3.107-2.637,3.107-5.613c0-2.965-1.554-8.404-3.443-10.226
			c-1.904-1.809-2.769-4.287-4.497-4.287c0,0-3.688-0.817-3.275-1.604c0.405-0.792,1.022-2.94-0.615-5.683
			c-0.416-0.696-0.752-1.291-1.026-1.83L31.437,130.872"/>
	</g>
	<g opacity="0.66">
		<defs>
			<filter id="Adobe_OpacityMaskFilter" filterUnits="userSpaceOnUse" x="46.837" y="130.872" width="255.152" height="1.573">
				<feFlood  style="flood-color:white;flood-opacity:1" result="back"/>
				<feBlend  in="SourceGraphic" in2="back" mode="normal"/>
			</filter>
		</defs>
		<mask maskUnits="userSpaceOnUse" x="46.837" y="130.872" width="255.152" height="1.573" id="SVGID_4_">
			<g filter="url(#Adobe_OpacityMaskFilter)">
				
					<image overflow="visible" width="1080" height="24" xlink:href="E9DB3DDF.jpg"  transform="matrix(0.24 0 0 0.24 44.8374 128.8721)">
				</image>
			</g>
		</mask>
		<g mask="url(#SVGID_4_)">
			<path d="M46.837,130.872c0,0,108.42,3.539,255.152,0H46.837z"/>
		</g>
	</g>
	<g>
		<path fill="#DD0C1B" d="M178.256,201.736c0,0-4.929-13.175,0.748-11.542C179.004,190.194,188.935,191.115,178.256,201.736"/>
		<path fill="#FFFFFF" d="M178.082,202.534l-0.24-0.643c-0.335-0.896-3.225-8.832-1.427-11.424c0.554-0.798,1.494-1.049,2.711-0.698
			c0.017-0.007,3.431,0.332,4.317,2.796c0.814,2.266-0.826,5.457-4.876,9.484L178.082,202.534z M178.115,190.497
			c-0.438,0-0.748,0.151-0.973,0.475c-1.193,1.719,0.358,7.263,1.292,9.955c4.253-4.374,4.632-6.793,4.176-8.063
			c-0.695-1.934-3.617-2.227-3.647-2.229C178.599,190.538,178.341,190.497,178.115,190.497z"/>
	</g>
	<linearGradient id="SVGID_5_" gradientUnits="userSpaceOnUse" x1="205.0479" y1="123.2813" x2="240.9681" y2="18.9612">
		<stop  offset="0.4606" style="stop-color:#9D9D9C"/>
		<stop  offset="0.7818" style="stop-color:#CFD0D0"/>
	</linearGradient>
	<path fill="url(#SVGID_5_)" d="M196.855,68.658L210.4,35.285l13.551,33.373H196.855z M241.167,58.545l-19.071-46.081h-23.247
		l-39.368,95.128h23.675l9.128-22.106h36.232l9.127,22.106h3.523h20.254v-0.106L241.167,58.545z"/>
	<linearGradient id="SVGID_6_" gradientUnits="userSpaceOnUse" x1="76.9551" y1="107.5898" x2="76.9551" y2="12.4639">
		<stop  offset="0.3636" style="stop-color:#A91112"/>
		<stop  offset="0.6909" style="stop-color:#E3051B"/>
	</linearGradient>
	<polygon fill="url(#SVGID_6_)" points="118.943,69.766 104.431,30.713 91.276,30.713 85.645,42.968 95.252,68.655 72.345,68.655 
		84.881,40.758 97.593,12.474 97.589,12.464 74.365,12.464 74.342,12.464 34.967,107.59 58.647,107.59 67.779,85.478 
		103.601,85.521 	"/>
	<linearGradient id="SVGID_7_" gradientUnits="userSpaceOnUse" x1="172.7705" y1="113.6138" x2="110.5249" y2="5.8012">
		<stop  offset="0.497" style="stop-color:#9D9D9C"/>
		<stop  offset="0.7818" style="stop-color:#CFD0D0"/>
	</linearGradient>
	<polygon fill="url(#SVGID_7_)" points="91.34,29.45 98.978,12.467 183.204,12.467 183.204,30.006 125.287,90.616 183.204,90.616 
		183.204,107.59 100.462,107.59 100.462,91.185 160.519,29.436 	"/>
	<g>
		<path fill="#FFFFFF" d="M121.766,145.617l-1.798,3.578h-1.462l5.848-11.325H126l1.563,11.325h-1.428l-0.454-3.578H121.766z
			 M125.581,144.508l-0.454-3.277c-0.051-0.588-0.135-1.429-0.185-2.084h-0.051c-0.302,0.673-0.587,1.378-0.924,2.067l-1.68,3.294
			H125.581z"/>
		<path fill="#FFFFFF" d="M129.077,149.195l0.991-5.242c0.202-1.059,0.32-2.135,0.421-2.891h1.227
			c-0.067,0.571-0.135,1.143-0.236,1.765h0.051c0.538-1.109,1.395-1.949,2.487-1.949c0.135,0,0.286,0.017,0.403,0.033l-0.269,1.378
			c-0.101-0.017-0.219-0.033-0.387-0.033c-1.193,0-2.268,1.462-2.622,3.344l-0.672,3.596H129.077z"/>
		<path fill="#FFFFFF" d="M138.455,139.113l-0.37,1.949h1.949l-0.218,1.092h-1.949l-0.74,3.95c-0.101,0.453-0.168,0.873-0.168,1.294
			c0,0.486,0.236,0.789,0.773,0.789c0.252,0,0.471-0.018,0.655-0.067l-0.067,1.092c-0.252,0.102-0.672,0.152-1.075,0.152
			c-1.227,0-1.714-0.739-1.714-1.58c0-0.471,0.067-0.924,0.185-1.513l0.79-4.117h-1.16l0.202-1.092h1.16l0.285-1.496
			L138.455,139.113z"/>
		<path fill="#FFFFFF" d="M140.119,149.195l1.563-8.133h1.377l-1.546,8.133H140.119z M142.724,139.685
			c-0.487,0-0.79-0.37-0.79-0.874c0.017-0.538,0.42-0.94,0.924-0.94c0.487,0,0.823,0.37,0.823,0.873
			c-0.017,0.555-0.403,0.941-0.941,0.941H142.724z"/>
		<path fill="#FFFFFF" d="M144.051,147.784c0.37,0.235,1.076,0.504,1.748,0.504c0.941,0,1.546-0.605,1.546-1.327
			c0-0.64-0.286-1.025-1.143-1.496c-0.94-0.52-1.461-1.243-1.461-2.066c0-1.429,1.227-2.521,2.957-2.521
			c0.723,0,1.378,0.201,1.681,0.402l-0.387,1.06c-0.286-0.168-0.79-0.37-1.395-0.37c-0.857,0-1.462,0.521-1.462,1.227
			c0,0.589,0.387,0.958,1.125,1.361c0.908,0.521,1.513,1.227,1.513,2.134c0,1.714-1.378,2.673-3.109,2.673
			c-0.873-0.018-1.646-0.27-2.016-0.555L144.051,147.784z"/>
		<path fill="#FFFFFF" d="M155.63,149.195c0-0.487,0.084-1.26,0.185-2.1h-0.034c-0.891,1.696-2.017,2.285-3.159,2.285
			c-1.445,0-2.336-1.144-2.336-2.689c0-2.839,2.083-5.813,5.63-5.813c0.773,0,1.612,0.135,2.185,0.303l-0.841,4.251
			c-0.269,1.412-0.37,2.856-0.336,3.764H155.63z M156.538,142.104c-0.202-0.067-0.504-0.117-0.975-0.117
			c-2.1,0-3.831,2.184-3.831,4.452c0,0.907,0.32,1.798,1.395,1.798c1.159,0,2.537-1.512,2.94-3.68L156.538,142.104z"/>
		<path fill="#FFFFFF" d="M159.025,149.195l1.076-5.764c0.185-0.907,0.302-1.696,0.387-2.369h1.26l-0.218,1.597h0.034
			c0.739-1.143,1.831-1.781,3.024-1.781c0.958,0,2.05,0.555,2.05,2.251c0,0.37-0.066,0.874-0.151,1.312l-0.907,4.755h-1.378
			l0.891-4.705c0.051-0.319,0.101-0.689,0.101-1.042c0-0.807-0.319-1.411-1.277-1.411c-0.991,0-2.403,1.193-2.772,3.21l-0.739,3.948
			H159.025z"/>
		<path fill="#FFFFFF" d="M168.067,147.784c0.369,0.235,1.075,0.504,1.747,0.504c0.94,0,1.546-0.605,1.546-1.327
			c0-0.64-0.285-1.025-1.143-1.496c-0.94-0.52-1.462-1.243-1.462-2.066c0-1.429,1.227-2.521,2.957-2.521
			c0.724,0,1.378,0.201,1.682,0.402l-0.388,1.06c-0.286-0.168-0.789-0.37-1.394-0.37c-0.858,0-1.463,0.521-1.463,1.227
			c0,0.589,0.387,0.958,1.126,1.361c0.907,0.521,1.512,1.227,1.512,2.134c0,1.714-1.377,2.673-3.108,2.673
			c-0.873-0.018-1.646-0.27-2.017-0.555L168.067,147.784z"/>
		<path fill="#FFFFFF" d="M184.148,149.195c-0.284-0.336-0.502-0.638-0.771-1.041c-0.941,0.856-1.949,1.227-3.193,1.227
			c-1.949,0-3.058-1.261-3.058-2.823c0-1.781,1.411-2.991,2.806-3.663v-0.051c-0.403-0.723-0.621-1.378-0.621-2.066
			c0-1.681,1.26-3.092,3.007-3.092c1.514,0,2.286,1.024,2.286,2.234c0,1.344-0.957,2.386-2.908,3.294v0.05
			c0.622,1.06,1.446,2.302,2.034,3.143c0.688-0.856,1.227-1.966,1.713-3.395h1.312c-0.622,1.814-1.344,3.228-2.386,4.302
			c0.42,0.588,0.874,1.21,1.429,1.882H184.148z M180.57,148.288c0.891,0,1.647-0.403,2.217-1.008
			c-0.537-0.79-1.512-2.168-2.352-3.579c-0.739,0.453-1.898,1.26-1.898,2.638c0,1.092,0.723,1.949,2.017,1.949H180.57z
			 M182.167,138.677c-0.856,0-1.563,0.84-1.563,1.949c0,0.638,0.168,1.209,0.537,1.798c1.362-0.656,2.169-1.395,2.169-2.47
			c0-0.656-0.303-1.277-1.127-1.277H182.167z"/>
		<path fill="#FFFFFF" d="M192.452,138.021c0.621-0.134,1.528-0.235,2.453-0.235c1.092,0,2.134,0.27,2.772,0.875
			c0.537,0.486,0.824,1.142,0.824,2.033c0,1.259-0.622,2.336-1.361,2.94c-0.874,0.739-2.151,1.092-3.428,1.092
			c-0.438,0-0.807-0.033-1.161-0.084l-0.856,4.554h-1.377L192.452,138.021z M192.771,143.466c0.387,0.083,0.722,0.101,1.126,0.101
			c1.914,0,3.193-1.177,3.193-2.773c0-1.344-0.959-1.881-2.253-1.881c-0.555,0-0.975,0.05-1.227,0.117L192.771,143.466z"/>
		<path fill="#FFFFFF" d="M208.332,149.195l0.807-6.116c0.152-1.075,0.404-2.739,0.604-3.832h-0.05
			c-0.52,1.144-1.159,2.488-1.764,3.647l-3.378,6.233h-1.059l-0.84-6.099c-0.169-1.312-0.287-2.622-0.354-3.782h-0.05
			c-0.235,1.043-0.587,2.757-0.856,3.832l-1.547,6.116h-1.31l2.94-11.325h1.781l0.89,6.503c0.118,0.958,0.237,2,0.27,2.84h0.051
			c0.352-0.84,0.841-1.865,1.328-2.807l3.495-6.536h1.831l-1.446,11.325H208.332z"/>
		<path fill="#FFFFFF" d="M218.468,143.868h-4.117l-0.773,4.135h4.639l-0.235,1.192h-6.032l2.15-11.325h5.78l-0.234,1.193h-4.369
			l-0.689,3.629h4.117L218.468,143.868z"/>
	</g>
	<linearGradient id="SVGID_8_" gradientUnits="userSpaceOnUse" x1="299.8574" y1="77.7563" x2="249.0797" y2="5.2382">
		<stop  offset="0" style="stop-color:#00487F"/>
		<stop  offset="0.5212" style="stop-color:#00487F"/>
		<stop  offset="1" style="stop-color:#61BEE5"/>
	</linearGradient>
	<path fill="url(#SVGID_8_)" d="M294.936,55.866c-1.709,0.57-4.423,0.712-7.132,0.712h-27.526v-28h27.955
		c5.273,0,7.986,0.572,10.126,2.285c2.852,2.43,4.278,6.144,4.278,10.999C302.637,49.436,299.784,54.579,294.936,55.866
		 M310.768,15.58c-5.422-3.142-10.267-4-23.252-4h-47.49v42.25l20.252,49.024V73.578h32.517c9.419,0,13.695-0.859,18.687-4.003
		c2.998-1.857,5.56-4.427,7.558-7.284c3.715-5.286,5.853-12.569,5.853-19.712C324.891,31.438,319.188,20.583,310.768,15.58"/>
	<g>
		<g>
			<path fill="#E30613" d="M35.132,126.299l-0.623-2.34h-3.957l-0.589,2.34h-1.296l3.132-11.803h1.515l3.233,11.803H35.132z
				 M32.522,116.314l-1.683,6.532h3.384L32.522,116.314z"/>
			<path fill="#E30613" d="M37.675,126.299v-1.347h4.108c1.033,0,1.549-0.521,1.549-1.566v-1.027c0-0.908-0.483-1.362-1.448-1.362
				h-1.667c-1.763,0-2.644-0.882-2.644-2.645v-0.909c0-1.964,0.927-2.946,2.779-2.946h3.889v1.347h-3.889
				c-0.977,0-1.465,0.534-1.465,1.6v0.909c0,0.932,0.483,1.398,1.448,1.398h1.667c1.763,0,2.644,0.869,2.644,2.608v1.027
				c0,1.942-0.955,2.913-2.863,2.913H37.675z"/>
			<path fill="#E30613" d="M46.144,126.299v-1.347h4.108c1.033,0,1.549-0.521,1.549-1.566v-1.027c0-0.908-0.483-1.362-1.448-1.362
				h-1.667c-1.762,0-2.644-0.882-2.644-2.645v-0.909c0-1.964,0.926-2.946,2.778-2.946h3.889v1.347h-3.889
				c-0.977,0-1.465,0.534-1.465,1.6v0.909c0,0.932,0.482,1.398,1.448,1.398h1.667c1.762,0,2.644,0.869,2.644,2.608v1.027
				c0,1.942-0.954,2.913-2.862,2.913H46.144z"/>
			<path fill="#E30613" d="M57.155,126.299c-0.875,0-1.509-0.235-1.902-0.708c-0.393-0.471-0.589-1.1-0.589-1.886v-6.599
				c0-0.809,0.196-1.445,0.589-1.911c0.393-0.467,1.027-0.699,1.902-0.699h2.408c0.876,0,1.509,0.232,1.902,0.699
				c0.393,0.466,0.59,1.103,0.59,1.911v6.599c0,0.786-0.197,1.415-0.59,1.886c-0.393,0.473-1.026,0.708-1.902,0.708H57.155z
				 M60.742,117.106c0-0.394-0.099-0.702-0.295-0.927c-0.197-0.225-0.491-0.337-0.884-0.337h-2.408
				c-0.393,0-0.687,0.112-0.883,0.337c-0.197,0.225-0.295,0.533-0.295,0.927v6.583c0,0.393,0.098,0.701,0.295,0.926
				c0.196,0.225,0.491,0.337,0.883,0.337h2.408c0.393,0,0.687-0.112,0.884-0.337c0.196-0.225,0.295-0.533,0.295-0.926V117.106z"/>
			<path fill="#E30613" d="M66.533,126.299c-1.886,0-2.829-0.96-2.829-2.879v-6.129c0-1.862,0.915-2.795,2.745-2.795h3.67v1.347
				h-3.67c-0.955,0-1.432,0.483-1.432,1.448v6.129c0,1.021,0.489,1.532,1.465,1.532h3.671v1.347H66.533z"/>
			<path fill="#E30613" d="M71.938,126.299v-11.803h1.313v11.803H71.938z"/>
			<path fill="#E30613" d="M81.064,126.299l-0.624-2.34h-3.956l-0.589,2.34h-1.297l3.132-11.803h1.516l3.232,11.803H81.064z
				 M78.454,116.314l-1.684,6.532h3.384L78.454,116.314z"/>
			<path fill="#E30613" d="M84.903,126.299v-10.456h-2.61v-1.347h6.567v1.347h-2.644v10.456H84.903z"/>
			<path fill="#E30613" d="M90.307,126.299v-11.803h1.313v11.803H90.307z"/>
			<path fill="#E30613" d="M95.931,126.299c-0.875,0-1.51-0.235-1.903-0.708c-0.393-0.471-0.589-1.1-0.589-1.886v-6.599
				c0-0.809,0.196-1.445,0.589-1.911c0.393-0.467,1.027-0.699,1.903-0.699h2.408c0.875,0,1.509,0.232,1.902,0.699
				c0.393,0.466,0.59,1.103,0.59,1.911v6.599c0,0.786-0.197,1.415-0.59,1.886c-0.393,0.473-1.026,0.708-1.902,0.708H95.931z
				 M99.517,117.106c0-0.394-0.098-0.702-0.294-0.927c-0.197-0.225-0.491-0.337-0.884-0.337h-2.408
				c-0.393,0-0.688,0.112-0.884,0.337c-0.197,0.225-0.294,0.533-0.294,0.927v6.583c0,0.393,0.098,0.701,0.294,0.926
				c0.196,0.225,0.491,0.337,0.884,0.337h2.408c0.393,0,0.687-0.112,0.884-0.337c0.196-0.225,0.294-0.533,0.294-0.926V117.106z"/>
			<path fill="#E30613" d="M108.087,126.299l-4.412-9.344v9.344h-1.195v-11.803h1.415l4.276,8.991v-8.991h1.179v11.803H108.087z"/>
		</g>
		<g>
			<path fill="#9D9D9C" d="M117.701,126.299v-1.061l4.647-9.396h-4.647v-1.347h6.281v0.757l-4.731,9.699h4.731v1.347H117.701z"/>
			<path fill="#9D9D9C" d="M127.988,126.299c-0.875,0-1.51-0.235-1.903-0.708c-0.393-0.471-0.589-1.1-0.589-1.886v-6.599
				c0-0.809,0.196-1.445,0.589-1.911c0.393-0.467,1.027-0.699,1.903-0.699h2.408c0.875,0,1.509,0.232,1.902,0.699
				c0.393,0.466,0.59,1.103,0.59,1.911v6.599c0,0.786-0.197,1.415-0.59,1.886c-0.393,0.473-1.027,0.708-1.902,0.708H127.988z
				 M131.575,117.106c0-0.394-0.099-0.702-0.295-0.927c-0.197-0.225-0.491-0.337-0.884-0.337h-2.408
				c-0.393,0-0.688,0.112-0.884,0.337c-0.197,0.225-0.295,0.533-0.295,0.927v6.583c0,0.393,0.098,0.701,0.295,0.926
				c0.196,0.225,0.491,0.337,0.884,0.337h2.408c0.393,0,0.687-0.112,0.884-0.337c0.196-0.225,0.295-0.533,0.295-0.926V117.106z"/>
			<path fill="#9D9D9C" d="M140.162,126.299l-4.412-9.344v9.344h-1.195v-11.803h1.415l4.276,8.991v-8.991h1.179v11.803H140.162z"/>
			<path fill="#9D9D9C" d="M143.175,126.299v-11.803h6.566v1.347h-5.253v3.838h3.131v1.247h-3.131v4.024h5.253v1.347H143.175z"/>
			<path fill="#9D9D9C" d="M160.702,126.299l-0.623-2.34h-3.957l-0.589,2.34h-1.296l3.131-11.803h1.516l3.233,11.803H160.702z
				 M158.092,116.314l-1.684,6.532h3.385L158.092,116.314z"/>
			<path fill="#9D9D9C" d="M164.558,126.299v-10.456h-2.609v-1.347h6.566v1.347h-2.644v10.456H164.558z"/>
			<path fill="#9D9D9C" d="M169.878,126.299v-11.803h1.313v10.456h3.957v1.347H169.878z"/>
			<path fill="#9D9D9C" d="M182.387,126.299l-0.622-2.34h-3.957l-0.589,2.34h-1.296l3.131-11.803h1.516l3.232,11.803H182.387z
				 M179.778,116.314l-1.685,6.532h3.385L179.778,116.314z"/>
			<path fill="#9D9D9C" d="M190.604,126.299l-4.41-9.344v9.344h-1.195v-11.803h1.413l4.277,8.991v-8.991h1.179v11.803H190.604z"/>
			<path fill="#9D9D9C" d="M195.774,126.299v-10.456h-2.611v-1.347h6.567v1.347h-2.644v10.456H195.774z"/>
			<path fill="#9D9D9C" d="M201.178,126.299v-11.803h1.313v11.803H201.178z"/>
			<path fill="#9D9D9C" d="M206.892,126.299c-0.866,0-1.498-0.233-1.899-0.698c-0.398-0.466-0.6-1.08-0.6-1.845v-6.701
				c0-0.773,0.199-1.394,0.592-1.859c0.394-0.467,1.012-0.699,1.856-0.699h2.464c0.833,0,1.446,0.236,1.84,0.707
				c0.394,0.472,0.591,1.089,0.591,1.852v7.948h1.161v1.296H206.892z M210.423,117.055c0-0.369-0.092-0.665-0.27-0.883
				c-0.18-0.219-0.467-0.329-0.86-0.329h-2.457c-0.382,0-0.665,0.11-0.852,0.329c-0.186,0.218-0.276,0.514-0.276,0.883v6.735
				c0,0.371,0.091,0.665,0.276,0.884c0.187,0.22,0.47,0.329,0.852,0.329h3.587V117.055z"/>
			<path fill="#9D9D9C" d="M216.819,126.299c-1.886,0-2.829-0.96-2.829-2.879v-8.924h1.314v8.924c0,1.021,0.494,1.532,1.48,1.532
				h1.667c0.977,0,1.465-0.512,1.465-1.532v-8.924h1.313v8.924c0,1.919-0.941,2.879-2.828,2.879H216.819z"/>
			<path fill="#9D9D9C" d="M222.998,126.299v-11.803h6.566v1.347h-5.254v3.838h3.133v1.247h-3.133v4.024h5.254v1.347H222.998z"/>
		</g>
		<g>
			<path fill="#004B88" d="M235.268,126.299v-11.803h4.35c1.736,0,2.604,0.959,2.604,2.88v1.667c0,1.852-0.867,2.777-2.602,2.777
				h-3.039v4.479H235.268z M240.908,117.392c0-1.032-0.433-1.549-1.296-1.549h-3.032v4.731h3.032c0.863,0,1.296-0.511,1.296-1.531
				V117.392z"/>
			<path fill="#004B88" d="M246.094,126.299c-0.875,0-1.51-0.235-1.901-0.708c-0.395-0.471-0.59-1.1-0.59-1.886v-6.599
				c0-0.809,0.195-1.445,0.59-1.911c0.392-0.467,1.026-0.699,1.901-0.699h2.407c0.876,0,1.51,0.232,1.903,0.699
				c0.393,0.466,0.59,1.103,0.59,1.911v6.599c0,0.786-0.197,1.415-0.59,1.886c-0.394,0.473-1.027,0.708-1.903,0.708H246.094z
				 M249.681,117.106c0-0.394-0.099-0.702-0.295-0.927c-0.195-0.225-0.491-0.337-0.885-0.337h-2.407
				c-0.394,0-0.688,0.112-0.884,0.337c-0.195,0.225-0.294,0.533-0.294,0.927v6.583c0,0.393,0.099,0.701,0.294,0.926
				c0.196,0.225,0.49,0.337,0.884,0.337h2.407c0.394,0,0.689-0.112,0.885-0.337c0.196-0.225,0.295-0.533,0.295-0.926V117.106z"/>
			<path fill="#004B88" d="M258.385,126.299V123.1c0-0.438-0.123-0.797-0.37-1.077s-0.606-0.421-1.078-0.421h-2.896v4.697h-1.313
				v-11.803h4.226c0.876,0,1.523,0.21,1.945,0.631c0.42,0.422,0.631,1.087,0.631,1.996v1.802c0,0.617-0.109,1.085-0.329,1.406
				c-0.219,0.318-0.524,0.524-0.917,0.614c0.393,0.056,0.726,0.267,1.002,0.631c0.274,0.364,0.413,0.85,0.413,1.456v3.267H258.385z
				 M258.302,117.392c0-1.032-0.451-1.549-1.348-1.549h-2.913v4.513h3.013c0.427,0,0.741-0.115,0.943-0.346
				c0.202-0.229,0.305-0.541,0.305-0.935V117.392z"/>
			<path fill="#004B88" d="M266.938,126.299l-4.41-9.344v9.344h-1.195v-11.803h1.413l4.277,8.991v-8.991h1.179v11.803H266.938z"/>
			<path fill="#004B88" d="M270.035,126.299v-11.803h1.313v11.803H270.035z"/>
			<path fill="#004B88" d="M275.996,126.299c-1.887,0-2.828-0.96-2.828-2.879v-6.129c0-1.862,0.913-2.795,2.743-2.795h3.671v1.347
				h-3.671c-0.954,0-1.431,0.483-1.431,1.448v6.129c0,1.021,0.487,1.532,1.465,1.532h3.67v1.347H275.996z"/>
			<path fill="#004B88" d="M286.973,126.299v-5.303h-4.36v5.303H281.3v-11.803h1.313v5.22h4.36v-5.22h1.315v11.803H286.973z"/>
			<path fill="#004B88" d="M290.121,126.299v-11.803h6.568v1.347h-5.254v3.838h3.13v1.247h-3.13v4.024h5.254v1.347H290.121z"/>
			<path fill="#004B88" d="M300.476,126.299v-10.456h-2.608v-1.347h6.565v1.347h-2.644v10.456H300.476z"/>
		</g>
		<g>
			<path fill="#727272" d="M117.811,126.299v-1.061l4.647-9.396h-4.647v-1.347h6.281v0.757l-4.731,9.699h4.731v1.347H117.811z"/>
			<path fill="#727272" d="M128.115,126.299c-0.875,0-1.509-0.235-1.902-0.708c-0.393-0.471-0.589-1.1-0.589-1.886v-6.599
				c0-0.809,0.196-1.445,0.589-1.911c0.393-0.467,1.027-0.699,1.902-0.699h2.408c0.876,0,1.509,0.232,1.902,0.699
				c0.393,0.466,0.59,1.103,0.59,1.911v6.599c0,0.786-0.197,1.415-0.59,1.886c-0.393,0.473-1.026,0.708-1.902,0.708H128.115z
				 M131.702,117.106c0-0.394-0.098-0.702-0.294-0.927c-0.197-0.225-0.491-0.337-0.884-0.337h-2.408
				c-0.393,0-0.688,0.112-0.884,0.337c-0.197,0.225-0.294,0.533-0.294,0.927v6.583c0,0.393,0.098,0.701,0.294,0.926
				c0.196,0.225,0.491,0.337,0.884,0.337h2.408c0.393,0,0.688-0.112,0.884-0.337c0.196-0.225,0.294-0.533,0.294-0.926V117.106z"/>
			<path fill="#727272" d="M140.272,126.299l-4.412-9.344v9.344h-1.195v-11.803h1.415l4.276,8.991v-8.991h1.179v11.803H140.272z"/>
			<path fill="#727272" d="M143.285,126.299v-11.803h6.567v1.347h-5.253v3.838h3.132v1.247h-3.132v4.024h5.253v1.347H143.285z"/>
			<path fill="#727272" d="M160.813,126.299l-0.624-2.34h-3.956l-0.59,2.34h-1.296l3.131-11.803h1.516l3.232,11.803H160.813z
				 M158.202,116.314l-1.684,6.532h3.385L158.202,116.314z"/>
			<path fill="#727272" d="M164.651,126.299v-10.456h-2.61v-1.347h6.566v1.347h-2.643v10.456H164.651z"/>
			<path fill="#727272" d="M169.972,126.299v-11.803h1.313v10.456h3.957v1.347H169.972z"/>
			<path fill="#727272" d="M182.497,126.299l-0.622-2.34h-3.956l-0.59,2.34h-1.296l3.132-11.803h1.515l3.232,11.803H182.497z
				 M179.889,116.314l-1.685,6.532h3.386L179.889,116.314z"/>
			<path fill="#727272" d="M190.698,126.299l-4.41-9.344v9.344h-1.196v-11.803h1.413l4.278,8.991v-8.991h1.178v11.803H190.698z"/>
			<path fill="#727272" d="M195.867,126.299v-10.456h-2.61v-1.347h6.566v1.347h-2.643v10.456H195.867z"/>
			<path fill="#727272" d="M201.271,126.299v-11.803h1.313v11.803H201.271z"/>
			<path fill="#727272" d="M206.984,126.299c-0.865,0-1.498-0.233-1.898-0.698c-0.399-0.466-0.6-1.08-0.6-1.845v-6.701
				c0-0.773,0.198-1.394,0.591-1.859c0.394-0.467,1.013-0.699,1.857-0.699h2.463c0.833,0,1.446,0.236,1.841,0.707
				c0.394,0.472,0.591,1.089,0.591,1.852v7.948h1.16v1.296H206.984z M210.516,117.055c0-0.369-0.092-0.665-0.27-0.883
				c-0.18-0.219-0.467-0.329-0.86-0.329h-2.457c-0.381,0-0.665,0.11-0.852,0.329c-0.185,0.218-0.276,0.514-0.276,0.883v6.735
				c0,0.371,0.092,0.665,0.276,0.884c0.187,0.22,0.471,0.329,0.852,0.329h3.587V117.055z"/>
			<path fill="#727272" d="M216.913,126.299c-1.887,0-2.83-0.96-2.83-2.879v-8.924h1.315v8.924c0,1.021,0.493,1.532,1.48,1.532
				h1.667c0.976,0,1.465-0.512,1.465-1.532v-8.924h1.313v8.924c0,1.919-0.941,2.879-2.828,2.879H216.913z"/>
			<path fill="#727272" d="M223.093,126.299v-11.803h6.566v1.347h-5.254v3.838h3.133v1.247h-3.133v4.024h5.254v1.347H223.093z"/>
		</g>
		<g>
			<path fill="#004B88" d="M235.415,126.299v-11.803h4.35c1.736,0,2.604,0.959,2.604,2.88v1.667c0,1.852-0.867,2.777-2.602,2.777
				h-3.039v4.479H235.415z M241.056,117.392c0-1.032-0.432-1.549-1.296-1.549h-3.032v4.731h3.032c0.864,0,1.296-0.511,1.296-1.531
				V117.392z"/>
			<path fill="#004B88" d="M246.242,126.299c-0.876,0-1.51-0.235-1.902-0.708c-0.394-0.471-0.589-1.1-0.589-1.886v-6.599
				c0-0.809,0.195-1.445,0.589-1.911c0.393-0.467,1.026-0.699,1.902-0.699h2.406c0.876,0,1.51,0.232,1.904,0.699
				c0.392,0.466,0.589,1.103,0.589,1.911v6.599c0,0.786-0.197,1.415-0.589,1.886c-0.395,0.473-1.028,0.708-1.904,0.708H246.242z
				 M249.828,117.106c0-0.394-0.099-0.702-0.295-0.927c-0.195-0.225-0.491-0.337-0.885-0.337h-2.406
				c-0.395,0-0.688,0.112-0.885,0.337c-0.195,0.225-0.294,0.533-0.294,0.927v6.583c0,0.393,0.099,0.701,0.294,0.926
				c0.197,0.225,0.49,0.337,0.885,0.337h2.406c0.394,0,0.689-0.112,0.885-0.337c0.196-0.225,0.295-0.533,0.295-0.926V117.106z"/>
			<path fill="#004B88" d="M258.532,126.299V123.1c0-0.438-0.123-0.797-0.37-1.077s-0.606-0.421-1.078-0.421h-2.896v4.697h-1.313
				v-11.803h4.226c0.876,0,1.523,0.21,1.945,0.631c0.42,0.422,0.631,1.087,0.631,1.996v1.802c0,0.617-0.109,1.085-0.328,1.406
				c-0.22,0.318-0.525,0.524-0.918,0.614c0.393,0.056,0.726,0.267,1.002,0.631c0.275,0.364,0.413,0.85,0.413,1.456v3.267H258.532z
				 M258.449,117.392c0-1.032-0.451-1.549-1.348-1.549h-2.913v4.513h3.014c0.427,0,0.741-0.115,0.943-0.346
				c0.202-0.229,0.304-0.541,0.304-0.935V117.392z"/>
			<path fill="#004B88" d="M267.086,126.299l-4.411-9.344v9.344h-1.195v-11.803h1.413l4.277,8.991v-8.991h1.179v11.803H267.086z"/>
			<path fill="#004B88" d="M270.184,126.299v-11.803h1.313v11.803H270.184z"/>
			<path fill="#004B88" d="M276.144,126.299c-1.887,0-2.828-0.96-2.828-2.879v-6.129c0-1.862,0.914-2.795,2.743-2.795h3.671v1.347
				h-3.671c-0.953,0-1.431,0.483-1.431,1.448v6.129c0,1.021,0.487,1.532,1.466,1.532h3.669v1.347H276.144z"/>
			<path fill="#004B88" d="M287.121,126.299v-5.303h-4.361v5.303h-1.313v-11.803h1.313v5.22h4.361v-5.22h1.314v11.803H287.121z"/>
			<path fill="#004B88" d="M290.269,126.299v-11.803h6.568v1.347h-5.254v3.838h3.131v1.247h-3.131v4.024h5.254v1.347H290.269z"/>
			<path fill="#004B88" d="M300.624,126.299v-10.456h-2.609v-1.347h6.565v1.347h-2.644v10.456H300.624z"/>
		</g>
		<g>
			<path fill="#E30613" d="M35.326,126.225l-0.623-2.34h-3.957l-0.589,2.34H28.86l3.131-11.803h1.516l3.232,11.803H35.326z
				 M32.716,116.24l-1.683,6.532h3.384L32.716,116.24z"/>
			<path fill="#E30613" d="M37.868,126.225v-1.347h4.108c1.032,0,1.548-0.521,1.548-1.566v-1.027c0-0.908-0.482-1.362-1.447-1.362
				H40.41c-1.762,0-2.643-0.883-2.643-2.645v-0.909c0-1.964,0.926-2.946,2.778-2.946h3.89v1.347h-3.89
				c-0.976,0-1.464,0.534-1.464,1.6v0.909c0,0.932,0.483,1.398,1.449,1.398h1.667c1.762,0,2.643,0.869,2.643,2.608v1.027
				c0,1.942-0.955,2.913-2.862,2.913H37.868z"/>
			<path fill="#E30613" d="M46.337,126.225v-1.347h4.108c1.032,0,1.549-0.521,1.549-1.566v-1.027c0-0.908-0.483-1.362-1.448-1.362
				h-1.667c-1.762,0-2.644-0.883-2.644-2.645v-0.909c0-1.964,0.926-2.946,2.778-2.946h3.89v1.347h-3.89
				c-0.976,0-1.465,0.534-1.465,1.6v0.909c0,0.932,0.483,1.398,1.449,1.398h1.667c1.762,0,2.643,0.869,2.643,2.608v1.027
				c0,1.942-0.955,2.913-2.863,2.913H46.337z"/>
			<path fill="#E30613" d="M57.349,126.225c-0.876,0-1.51-0.235-1.903-0.708c-0.393-0.471-0.589-1.1-0.589-1.886v-6.599
				c0-0.809,0.196-1.445,0.589-1.911c0.393-0.467,1.027-0.699,1.903-0.699h2.407c0.875,0,1.509,0.232,1.903,0.699
				c0.392,0.466,0.589,1.103,0.589,1.911v6.599c0,0.786-0.197,1.415-0.589,1.886c-0.394,0.473-1.028,0.708-1.903,0.708H57.349z
				 M60.936,117.032c0-0.394-0.099-0.702-0.295-0.927c-0.197-0.226-0.491-0.337-0.884-0.337h-2.407
				c-0.394,0-0.688,0.111-0.885,0.337c-0.197,0.225-0.294,0.533-0.294,0.927v6.583c0,0.393,0.098,0.701,0.294,0.926
				s0.491,0.337,0.885,0.337h2.407c0.393,0,0.687-0.112,0.884-0.337c0.197-0.225,0.295-0.533,0.295-0.926V117.032z"/>
			<path fill="#E30613" d="M66.727,126.225c-1.885,0-2.828-0.96-2.828-2.879v-6.129c0-1.862,0.914-2.795,2.744-2.795h3.67v1.347
				h-3.67c-0.955,0-1.431,0.483-1.431,1.448v6.129c0,1.021,0.489,1.532,1.465,1.532h3.67v1.347H66.727z"/>
			<path fill="#E30613" d="M72.115,126.225v-11.803h1.313v11.803H72.115z"/>
			<path fill="#E30613" d="M81.24,126.225l-0.624-2.34H76.66l-0.589,2.34h-1.296l3.13-11.803h1.516l3.232,11.803H81.24z
				 M78.63,116.24l-1.683,6.532h3.385L78.63,116.24z"/>
			<path fill="#E30613" d="M85.079,126.225v-10.456h-2.61v-1.347h6.567v1.347h-2.644v10.456H85.079z"/>
			<path fill="#E30613" d="M90.483,126.225v-11.803h1.314v11.803H90.483z"/>
			<path fill="#E30613" d="M96.107,126.225c-0.875,0-1.509-0.235-1.903-0.708c-0.392-0.471-0.589-1.1-0.589-1.886v-6.599
				c0-0.809,0.197-1.445,0.589-1.911c0.394-0.467,1.028-0.699,1.903-0.699h2.408c0.876,0,1.51,0.232,1.903,0.699
				c0.393,0.466,0.59,1.103,0.59,1.911v6.599c0,0.786-0.197,1.415-0.59,1.886c-0.393,0.473-1.027,0.708-1.903,0.708H96.107z
				 M99.694,117.032c0-0.394-0.099-0.702-0.295-0.927c-0.197-0.226-0.491-0.337-0.884-0.337h-2.408
				c-0.393,0-0.688,0.111-0.883,0.337c-0.197,0.225-0.295,0.533-0.295,0.927v6.583c0,0.393,0.098,0.701,0.295,0.926
				c0.196,0.225,0.49,0.337,0.883,0.337h2.408c0.394,0,0.688-0.112,0.884-0.337c0.196-0.225,0.295-0.533,0.295-0.926V117.032z"/>
			<path fill="#E30613" d="M108.264,126.225l-4.412-9.344v9.344h-1.196v-11.803h1.414l4.277,8.991v-8.991h1.179v11.803H108.264z"/>
		</g>
	</g>
</g>
</svg>
